# xmcd
#
# Track frame offsets: 
#        150
#        15961
#        33736
#        51699
#        69081
#        83256
#        104646
#        117082
#        138828
#        149544
#        160916
#        173845
#        183858
#        200302
#        215242
#        227482
#        242923
#        261373
#        277320
#        284820
#        297308
#        308924
#
# Disc length: 4377 seconds
#
# Revision: 0
# Processed by: cddbd v1.5.2PL0 Copyright (c) Steve Scherf et al.
# Submitted via: ExactAudioCopyFreeDBPlugin 1.0
#
DISCID=53111716
DTITLE=Sunnyland Slim - Slim's Shout and Chicago Blues Session
DYEAR=2015
DGENRE=Blues
TTITLE0=Prison Bound
TTITLE1=Slim's Shout
TTITLE2=The Devil Is A Busy Man
TTITLE3=Brownskin Woman
TTITLE4=Shake It
TTITLE5=Decoration Day
TTITLE6=Baby How Long
TTITLE7=Sunnyland Special
TTITLE8=Harlem Can't Be Heaven
TTITLE9=It's You Baby
TTITLE10=One Room Country Shack
TTITLE11=Trembling Blues
TTITLE12=Prison Bound
TTITLE13=My Electrical Invention Blues
TTITLE14=Brownskin Woman
TTITLE15=La Salle St. Boogie
TTITLE16=That's Why I Keep Drinking
TTITLE17=I Got The Blues About My Baby
TTITLE18=Bob Martin Blues
TTITLE19=Devil Is A Busy Man
TTITLE20=No Special Rider
TTITLE21=Everytime I Get To Drinkin'
EXTD=
EXTT0=
EXTT1=
EXTT2=
EXTT3=
EXTT4=
EXTT5=
EXTT6=
EXTT7=
EXTT8=
EXTT9=
EXTT10=
EXTT11=
EXTT12=
EXTT13=
EXTT14=
EXTT15=
EXTT16=
EXTT17=
EXTT18=
EXTT19=
EXTT20=
EXTT21=
PLAYORDER=
